<?xml version="1.0" encoding="UTF-8" standalone="no"?>
<!DOCTYPE svg PUBLIC "-//W3C//DTD SVG 1.1//EN" "http://www.w3.org/Graphics/SVG/1.1/DTD/svg11.dtd">
<svg width="100%" height="100%" viewBox="0 0 2400 2400" version="1.1" xmlns="http://www.w3.org/2000/svg" xmlns:xlink="http://www.w3.org/1999/xlink" xml:space="preserve" xmlns:serif="http://www.serif.com/" style="fill-rule:evenodd;clip-rule:evenodd;stroke-linejoin:round;stroke-miterlimit:2;">
    <rect id="画板1" x="0" y="0" width="2400" height="2400" style="fill:rgb(187,234,255);"/>
    <g id="画板11" serif:id="画板1">
        <g id="head">
            <path d="M1418.13,825.846c0,-56.004 -22.247,-109.713 -61.847,-149.313c-39.6,-39.601 -93.31,-61.848 -149.313,-61.848l-13.942,0c-56.003,0 -109.713,22.247 -149.313,61.848c-39.6,39.6 -61.847,93.309 -61.847,149.313l-0,106.321c-0,14.075 5.591,27.573 15.543,37.526c9.953,9.952 23.451,15.544 37.526,15.544l330.124,-0c14.075,-0 27.573,-5.592 37.526,-15.544c9.952,-9.953 15.543,-23.451 15.543,-37.526l0,-106.321Z" style="fill:white;"/>
            <path id="face" d="M1336.04,797.287c-0,-16.09 -6.392,-31.521 -17.77,-42.899c-11.378,-11.378 -26.809,-17.77 -42.9,-17.77l-150.744,0c-16.091,0 -31.522,6.392 -42.9,17.77c-11.378,11.378 -17.77,26.809 -17.77,42.899l0,76.126c0,11.912 9.657,21.569 21.569,21.569l228.946,-0c11.912,-0 21.569,-9.657 21.569,-21.569l-0,-76.126Z" style="fill:rgb(1,1,1);"/>
            <path id="eye_left" d="M1186.67,822.198c0,-7.721 -3.067,-15.126 -8.527,-20.586c-5.459,-5.46 -12.864,-8.527 -20.585,-8.527l-16.191,0c-7.721,0 -15.126,3.067 -20.586,8.527c-5.459,5.46 -8.527,12.865 -8.527,20.586l0,10.607c0,2.356 0.936,4.615 2.602,6.281c1.666,1.666 3.925,2.601 6.281,2.601c14.316,0 42.334,0 56.651,0c2.356,0 4.615,-0.935 6.281,-2.601c1.665,-1.666 2.601,-3.925 2.601,-6.281c0,-3.1 0,-6.77 0,-10.607Z" style="fill:rgb(17,27,138);"/>
            <path id="eye_right" d="M1287.74,822.198c-0,-7.721 -3.068,-15.126 -8.527,-20.586c-5.46,-5.46 -12.865,-8.527 -20.586,-8.527l-16.191,0c-7.721,0 -15.126,3.067 -20.585,8.527c-5.46,5.46 -8.527,12.865 -8.527,20.586l-0,10.607c-0,2.356 0.936,4.615 2.601,6.281c1.666,1.666 3.925,2.601 6.281,2.601c14.317,0 42.335,0 56.651,0c2.356,0 4.615,-0.935 6.281,-2.601c1.666,-1.666 2.602,-3.925 2.602,-6.281c-0,-3.1 -0,-6.77 -0,-10.607Z" style="fill:rgb(17,27,138);"/>
        </g>
        <g id="body">
            <path d="M1481.28,1384.45c-0,74.601 -29.635,146.146 -82.386,198.897c-52.751,52.75 -124.296,82.385 -198.896,82.385l-0.002,0c-74.6,0 -146.145,-29.635 -198.896,-82.385c-52.751,-52.751 -82.386,-124.296 -82.386,-198.897l0,-295.344c0,-29.309 23.76,-53.069 53.07,-53.069l456.426,-0c29.31,-0 53.07,23.76 53.07,53.069l-0,295.344Z" style="fill:white;"/>
            <circle id="green_dot" cx="1200" cy="1216.35" r="54.677" style="fill:rgb(0,255,0);"/>
        </g>
        <path id="arm_left" d="M875.102,1046.53c-0,-5.647 -2.243,-11.062 -6.236,-15.055c-3.993,-3.993 -9.409,-6.237 -15.056,-6.237c-25.997,0 -69.704,0 -95.701,0c-5.647,0 -11.063,2.244 -15.056,6.237c-3.993,3.993 -6.236,9.408 -6.236,15.055c-0,74.255 -0,321.278 -0,395.532c-0,5.647 2.243,11.063 6.236,15.056c3.993,3.993 9.409,6.236 15.056,6.236c10.061,0 22.776,0 36.089,0c21.457,0 42.035,-8.524 57.208,-23.696c15.172,-15.172 23.696,-35.75 23.696,-57.207c-0,-103.332 -0,-275.958 -0,-335.921Z" style="fill:white;"/>
        <path id="arm_right" d="M1524.9,1046.53c0,-5.647 2.243,-11.062 6.236,-15.055c3.993,-3.993 9.409,-6.237 15.056,-6.237c25.997,0 69.704,0 95.701,0c5.647,0 11.063,2.244 15.056,6.237c3.993,3.993 6.236,9.408 6.236,15.055c0,74.255 0,321.278 0,395.532c0,5.647 -2.243,11.063 -6.236,15.056c-3.993,3.993 -9.409,6.236 -15.056,6.236c-10.061,0 -22.776,0 -36.089,0c-21.457,0 -42.035,-8.524 -57.208,-23.696c-15.172,-15.172 -23.696,-35.75 -23.696,-57.207c0,-103.332 0,-275.958 0,-335.921Z" style="fill:white;"/>
    </g>
</svg>
